<?xml version="1.0" encoding="UTF-8"?><svg xmlns="http://www.w3.org/2000/svg" width="1600" height="910" viewBox="0 0 1600 910"><style>.display{font-family:Impact,"DIN Condensed",sans-serif;font-weight:900;letter-spacing:1px}.mono{font-family:Menlo,Monaco,monospace;font-weight:600;letter-spacing:1px}</style><rect x="0" y="0" width="1600" height="910" rx="4" fill="#0d0c0a" stroke="none" stroke-width="0" /><circle cx="448" cy="711" r=".65" fill="#f2eadc" opacity=".055"/><circle cx="498" cy="329" r=".65" fill="#f2eadc" opacity=".055"/><circle cx="308" cy="555" r=".65" fill="#f2eadc" opacity=".055"/><circle cx="1478" cy="119" r=".65" fill="#f2eadc" opacity=".055"/><circle cx="680" cy="485" r=".65" fill="#f2eadc" opacity=".055"/><circle cx="1562" cy="529" r=".65" fill="#f2eadc" opacity=".055"/><circle cx="604" cy="861" r=".65" fill="#f2eadc" opacity=".055"/><circle cx="1582" cy="367" r=".65" fill="#f2eadc" opacity=".055"/><circle cx="80" cy="895" r=".65" fill="#f2eadc" opacity=".055"/><circle cx="450" cy="607" r=".65" fill="#f2eadc" opacity=".055"/><circle cx="900" cy="141" r=".65" fill="#f2eadc" opacity=".055"/><circle cx="1110" cy="141" r=".65" fill="#f2eadc" opacity=".055"/><circle cx="1336" cy="689" r=".65" fill="#f2eadc" opacity=".055"/><circle cx="1322" cy="41" r=".65" fill="#f2eadc" opacity=".055"/><circle cx="364" cy="679" r=".65" fill="#f2eadc" opacity=".055"/><circle cx="702" cy="395" r=".65" fill="#f2eadc" opacity=".055"/><circle cx="480" cy="471" r=".65" fill="#f2eadc" opacity=".055"/><circle cx="338" cy="435" r=".65" fill="#f2eadc" opacity=".055"/><circle cx="1236" cy="783" r=".65" fill="#f2eadc" opacity=".055"/><circle cx="1318" cy="511" r=".65" fill="#f2eadc" opacity=".055"/><circle cx="712" cy="127" r=".65" fill="#f2eadc" opacity=".055"/><circle cx="698" cy="519" r=".65" fill="#f2eadc" opacity=".055"/><circle cx="508" cy="331" r=".65" fill="#f2eadc" opacity=".055"/><circle cx="1550" cy="175" r=".65" fill="#f2eadc" opacity=".055"/><circle cx="1392" cy="305" r=".65" fill="#f2eadc" opacity=".055"/><circle cx="1058" cy="337" r=".65" fill="#f2eadc" opacity=".055"/><circle cx="1380" cy="901" r=".65" fill="#f2eadc" opacity=".055"/><circle cx="246" cy="885" r=".65" fill="#f2eadc" opacity=".055"/><circle cx="408" cy="243" r=".65" fill="#f2eadc" opacity=".055"/><circle cx="1418" cy="829" r=".65" fill="#f2eadc" opacity=".055"/><circle cx="908" cy="287" r=".65" fill="#f2eadc" opacity=".055"/><circle cx="1502" cy="835" r=".65" fill="#f2eadc" opacity=".055"/><circle cx="640" cy="333" r=".65" fill="#f2eadc" opacity=".055"/><circle cx="1330" cy="799" r=".65" fill="#f2eadc" opacity=".055"/><circle cx="116" cy="83" r=".65" fill="#f2eadc" opacity=".055"/><circle cx="326" cy="67" r=".65" fill="#f2eadc" opacity=".055"/><circle cx="1000" cy="237" r=".65" fill="#f2eadc" opacity=".055"/><circle cx="346" cy="141" r=".65" fill="#f2eadc" opacity=".055"/><circle cx="604" cy="629" r=".65" fill="#f2eadc" opacity=".055"/><circle cx="494" cy="107" r=".65" fill="#f2eadc" opacity=".055"/><circle cx="528" cy="715" r=".65" fill="#f2eadc" opacity=".055"/><circle cx="962" cy="621" r=".65" fill="#f2eadc" opacity=".055"/><circle cx="132" cy="409" r=".65" fill="#f2eadc" opacity=".055"/><circle cx="1302" cy="163" r=".65" fill="#f2eadc" opacity=".055"/><circle cx="824" cy="209" r=".65" fill="#f2eadc" opacity=".055"/><circle cx="42" cy="291" r=".65" fill="#f2eadc" opacity=".055"/><circle cx="1580" cy="157" r=".65" fill="#f2eadc" opacity=".055"/><circle cx="446" cy="803" r=".65" fill="#f2eadc" opacity=".055"/><circle cx="800" cy="713" r=".65" fill="#f2eadc" opacity=".055"/><circle cx="146" cy="815" r=".65" fill="#f2eadc" opacity=".055"/><circle cx="596" cy="211" r=".65" fill="#f2eadc" opacity=".055"/><circle cx="166" cy="99" r=".65" fill="#f2eadc" opacity=".055"/><circle cx="1160" cy="521" r=".65" fill="#f2eadc" opacity=".055"/><circle cx="1082" cy="209" r=".65" fill="#f2eadc" opacity=".055"/><circle cx="636" cy="329" r=".65" fill="#f2eadc" opacity=".055"/><circle cx="782" cy="551" r=".65" fill="#f2eadc" opacity=".055"/><circle cx="1136" cy="243" r=".65" fill="#f2eadc" opacity=".055"/><circle cx="418" cy="853" r=".65" fill="#f2eadc" opacity=".055"/><circle cx="548" cy="89" r=".65" fill="#f2eadc" opacity=".055"/><circle cx="1590" cy="201" r=".65" fill="#f2eadc" opacity=".055"/><circle cx="408" cy="647" r=".65" fill="#f2eadc" opacity=".055"/><circle cx="1290" cy="73" r=".65" fill="#f2eadc" opacity=".055"/><circle cx="780" cy="301" r=".65" fill="#f2eadc" opacity=".055"/><circle cx="670" cy="129" r=".65" fill="#f2eadc" opacity=".055"/><circle cx="1024" cy="545" r=".65" fill="#f2eadc" opacity=".055"/><circle cx="370" cy="119" r=".65" fill="#f2eadc" opacity=".055"/><circle cx="756" cy="55" r=".65" fill="#f2eadc" opacity=".055"/><circle cx="646" cy="121" r=".65" fill="#f2eadc" opacity=".055"/><circle cx="872" cy="753" r=".65" fill="#f2eadc" opacity=".055"/><circle cx="858" cy="457" r=".65" fill="#f2eadc" opacity=".055"/><circle cx="412" cy="99" r=".65" fill="#f2eadc" opacity=".055"/><circle cx="1454" cy="111" r=".65" fill="#f2eadc" opacity=".055"/><circle cx="1552" cy="445" r=".65" fill="#f2eadc" opacity=".055"/><circle cx="1090" cy="129" r=".65" fill="#f2eadc" opacity=".055"/><circle cx="836" cy="203" r=".65" fill="#f2eadc" opacity=".055"/><circle cx="1558" cy="545" r=".65" fill="#f2eadc" opacity=".055"/><circle cx="1336" cy="7" r=".65" fill="#f2eadc" opacity=".055"/><circle cx="298" cy="485" r=".65" fill="#f2eadc" opacity=".055"/><circle cx="1388" cy="351" r=".65" fill="#f2eadc" opacity=".055"/><circle cx="382" cy="613" r=".65" fill="#f2eadc" opacity=".055"/><circle cx="480" cy="125" r=".65" fill="#f2eadc" opacity=".055"/><circle cx="1490" cy="267" r=".65" fill="#f2eadc" opacity=".055"/><circle cx="596" cy="725" r=".65" fill="#f2eadc" opacity=".055"/><circle cx="806" cy="863" r=".65" fill="#f2eadc" opacity=".055"/><circle cx="1352" cy="519" r=".65" fill="#f2eadc" opacity=".055"/><circle cx="762" cy="733" r=".65" fill="#f2eadc" opacity=".055"/><circle cx="1020" cy="483" r=".65" fill="#f2eadc" opacity=".055"/><circle cx="1038" cy="413" r=".65" fill="#f2eadc" opacity=".055"/><circle cx="1520" cy="883" r=".65" fill="#f2eadc" opacity=".055"/><circle cx="546" cy="773" r=".65" fill="#f2eadc" opacity=".055"/><circle cx="932" cy="363" r=".65" fill="#f2eadc" opacity=".055"/><circle cx="182" cy="763" r=".65" fill="#f2eadc" opacity=".055"/><circle cx="24" cy="703" r=".65" fill="#f2eadc" opacity=".055"/><circle cx="74" cy="245" r=".65" fill="#f2eadc" opacity=".055"/><circle cx="844" cy="583" r=".65" fill="#f2eadc" opacity=".055"/><circle cx="1374" cy="849" r=".65" fill="#f2eadc" opacity=".055"/><circle cx="128" cy="343" r=".65" fill="#f2eadc" opacity=".055"/><circle cx="1010" cy="185" r=".65" fill="#f2eadc" opacity=".055"/><circle cx="1524" cy="861" r=".65" fill="#f2eadc" opacity=".055"/><circle cx="710" cy="489" r=".65" fill="#f2eadc" opacity=".055"/><circle cx="872" cy="383" r=".65" fill="#f2eadc" opacity=".055"/><circle cx="1562" cy="715" r=".65" fill="#f2eadc" opacity=".055"/><circle cx="1308" cy="593" r=".65" fill="#f2eadc" opacity=".055"/><circle cx="942" cy="787" r=".65" fill="#f2eadc" opacity=".055"/><circle cx="272" cy="7" r=".65" fill="#f2eadc" opacity=".055"/><circle cx="962" cy="5" r=".65" fill="#f2eadc" opacity=".055"/><circle cx="388" cy="583" r=".65" fill="#f2eadc" opacity=".055"/><circle cx="1174" cy="473" r=".65" fill="#f2eadc" opacity=".055"/><circle cx="632" cy="667" r=".65" fill="#f2eadc" opacity=".055"/><circle cx="682" cy="517" r=".65" fill="#f2eadc" opacity=".055"/><circle cx="1260" cy="893" r=".65" fill="#f2eadc" opacity=".055"/><circle cx="126" cy="121" r=".65" fill="#f2eadc" opacity=".055"/><circle cx="1120" cy="465" r=".65" fill="#f2eadc" opacity=".055"/><circle cx="1234" cy="719" r=".65" fill="#f2eadc" opacity=".055"/><circle cx="980" cy="671" r=".65" fill="#f2eadc" opacity=".055"/><circle cx="1062" cy="57" r=".65" fill="#f2eadc" opacity=".055"/><circle cx="1032" cy="67" r=".65" fill="#f2eadc" opacity=".055"/><circle cx="762" cy="451" r=".65" fill="#f2eadc" opacity=".055"/><circle cx="1404" cy="327" r=".65" fill="#f2eadc" opacity=".055"/><circle cx="462" cy="201" r=".65" fill="#f2eadc" opacity=".055"/><circle cx="1328" cy="757" r=".65" fill="#f2eadc" opacity=".055"/><circle cx="930" cy="93" r=".65" fill="#f2eadc" opacity=".055"/><circle cx="1572" cy="483" r=".65" fill="#f2eadc" opacity=".055"/><circle cx="182" cy="623" r=".65" fill="#f2eadc" opacity=".055"/><circle cx="472" cy="629" r=".65" fill="#f2eadc" opacity=".055"/><circle cx="330" cy="105" r=".65" fill="#f2eadc" opacity=".055"/><circle cx="716" cy="143" r=".65" fill="#f2eadc" opacity=".055"/><circle cx="990" cy="337" r=".65" fill="#f2eadc" opacity=".055"/><circle cx="512" cy="607" r=".65" fill="#f2eadc" opacity=".055"/><circle cx="1074" cy="483" r=".65" fill="#f2eadc" opacity=".055"/><circle cx="628" cy="623" r=".65" fill="#f2eadc" opacity=".055"/><circle cx="902" cy="277" r=".65" fill="#f2eadc" opacity=".055"/><circle cx="296" cy="271" r=".65" fill="#f2eadc" opacity=".055"/><circle cx="1242" cy="217" r=".65" fill="#f2eadc" opacity=".055"/><circle cx="1500" cy="625" r=".65" fill="#f2eadc" opacity=".055"/><circle cx="366" cy="531" r=".65" fill="#f2eadc" opacity=".055"/><circle cx="720" cy="297" r=".65" fill="#f2eadc" opacity=".055"/><circle cx="834" cy="277" r=".65" fill="#f2eadc" opacity=".055"/><circle cx="1284" cy="597" r=".65" fill="#f2eadc" opacity=".055"/><circle cx="278" cy="505" r=".65" fill="#f2eadc" opacity=".055"/><circle cx="1592" cy="221" r=".65" fill="#f2eadc" opacity=".055"/><circle cx="106" cy="885" r=".65" fill="#f2eadc" opacity=".055"/><circle cx="876" cy="711" r=".65" fill="#f2eadc" opacity=".055"/><circle cx="510" cy="597" r=".65" fill="#f2eadc" opacity=".055"/><circle cx="1440" cy="171" r=".65" fill="#f2eadc" opacity=".055"/><circle cx="1554" cy="267" r=".65" fill="#f2eadc" opacity=".055"/><circle cx="1236" cy="23" r=".65" fill="#f2eadc" opacity=".055"/><circle cx="294" cy="459" r=".65" fill="#f2eadc" opacity=".055"/><circle cx="456" cy="341" r=".65" fill="#f2eadc" opacity=".055"/><circle cx="1530" cy="5" r=".65" fill="#f2eadc" opacity=".055"/><circle cx="60" cy="227" r=".65" fill="#f2eadc" opacity=".055"/><circle cx="718" cy="561" r=".65" fill="#f2eadc" opacity=".055"/><circle cx="560" cy="139" r=".65" fill="#f2eadc" opacity=".055"/><circle cx="482" cy="39" r=".65" fill="#f2eadc" opacity=".055"/><circle cx="228" cy="41" r=".65" fill="#f2eadc" opacity=".055"/><circle cx="1078" cy="229" r=".65" fill="#f2eadc" opacity=".055"/><circle cx="792" cy="707" r=".65" fill="#f2eadc" opacity=".055"/><circle cx="138" cy="695" r=".65" fill="#f2eadc" opacity=".055"/><circle cx="1356" cy="159" r=".65" fill="#f2eadc" opacity=".055"/><circle cx="414" cy="549" r=".65" fill="#f2eadc" opacity=".055"/><circle cx="256" cy="63" r=".65" fill="#f2eadc" opacity=".055"/><circle cx="306" cy="705" r=".65" fill="#f2eadc" opacity=".055"/><circle cx="308" cy="513" r=".65" fill="#f2eadc" opacity=".055"/><circle cx="1542" cy="731" r=".65" fill="#f2eadc" opacity=".055"/><circle cx="1064" cy="203" r=".65" fill="#f2eadc" opacity=".055"/><circle cx="1114" cy="547" r=".65" fill="#f2eadc" opacity=".055"/><circle cx="1116" cy="337" r=".65" fill="#f2eadc" opacity=".055"/><circle cx="558" cy="675" r=".65" fill="#f2eadc" opacity=".055"/><circle cx="464" cy="57" r=".65" fill="#f2eadc" opacity=".055"/><circle cx="1282" cy="383" r=".65" fill="#f2eadc" opacity=".055"/><circle cx="1540" cy="267" r=".65" fill="#f2eadc" opacity=".055"/><circle cx="918" cy="467" r=".65" fill="#f2eadc" opacity=".055"/><circle cx="1016" cy="35" r=".65" fill="#f2eadc" opacity=".055"/><circle cx="618" cy="843" r=".65" fill="#f2eadc" opacity=".055"/><circle cx="1452" cy="873" r=".65" fill="#f2eadc" opacity=".055"/><circle cx="702" cy="787" r=".65" fill="#f2eadc" opacity=".055"/><circle cx="1184" cy="219" r=".65" fill="#f2eadc" opacity=".055"/><circle cx="466" cy="57" r=".65" fill="#f2eadc" opacity=".055"/><circle cx="1364" cy="895" r=".65" fill="#f2eadc" opacity=".055"/><circle cx="678" cy="873" r=".65" fill="#f2eadc" opacity=".055"/><circle cx="712" cy="249" r=".65" fill="#f2eadc" opacity=".055"/><circle cx="1338" cy="869" r=".65" fill="#f2eadc" opacity=".055"/><circle cx="1276" cy="613" r=".65" fill="#f2eadc" opacity=".055"/><circle cx="206" cy="895" r=".65" fill="#f2eadc" opacity=".055"/><circle cx="240" cy="277" r=".65" fill="#f2eadc" opacity=".055"/><circle cx="546" cy="735" r=".65" fill="#f2eadc" opacity=".055"/><circle cx="1380" cy="655" r=".65" fill="#f2eadc" opacity=".055"/><circle cx="374" cy="491" r=".65" fill="#f2eadc" opacity=".055"/><circle cx="152" cy="771" r=".65" fill="#f2eadc" opacity=".055"/><circle cx="1098" cy="135" r=".65" fill="#f2eadc" opacity=".055"/><circle cx="1228" cy="167" r=".65" fill="#f2eadc" opacity=".055"/><circle cx="1374" cy="775" r=".65" fill="#f2eadc" opacity=".055"/><circle cx="768" cy="117" r=".65" fill="#f2eadc" opacity=".055"/><circle cx="178" cy="465" r=".65" fill="#f2eadc" opacity=".055"/><circle cx="436" cy="345" r=".65" fill="#f2eadc" opacity=".055"/><circle cx="966" cy="175" r=".65" fill="#f2eadc" opacity=".055"/><circle cx="232" cy="541" r=".65" fill="#f2eadc" opacity=".055"/><circle cx="410" cy="481" r=".65" fill="#f2eadc" opacity=".055"/><circle cx="1116" cy="845" r=".65" fill="#f2eadc" opacity=".055"/><circle cx="174" cy="255" r=".65" fill="#f2eadc" opacity=".055"/><circle cx="592" cy="55" r=".65" fill="#f2eadc" opacity=".055"/><circle cx="2" cy="223" r=".65" fill="#f2eadc" opacity=".055"/><circle cx="1412" cy="845" r=".65" fill="#f2eadc" opacity=".055"/><circle cx="1558" cy="135" r=".65" fill="#f2eadc" opacity=".055"/><circle cx="1336" cy="487" r=".65" fill="#f2eadc" opacity=".055"/><circle cx="1386" cy="875" r=".65" fill="#f2eadc" opacity=".055"/><circle cx="620" cy="691" r=".65" fill="#f2eadc" opacity=".055"/><circle cx="190" cy="13" r=".65" fill="#f2eadc" opacity=".055"/><circle cx="224" cy="739" r=".65" fill="#f2eadc" opacity=".055"/><circle cx="594" cy="133" r=".65" fill="#f2eadc" opacity=".055"/><circle cx="788" cy="659" r=".65" fill="#f2eadc" opacity=".055"/><circle cx="614" cy="53" r=".65" fill="#f2eadc" opacity=".055"/><circle cx="8" cy="185" r=".65" fill="#f2eadc" opacity=".055"/><circle cx="890" cy="173" r=".65" fill="#f2eadc" opacity=".055"/><circle cx="1276" cy="45" r=".65" fill="#f2eadc" opacity=".055"/><circle cx="846" cy="157" r=".65" fill="#f2eadc" opacity=".055"/><circle cx="1520" cy="151" r=".65" fill="#f2eadc" opacity=".055"/><circle cx="482" cy="549" r=".65" fill="#f2eadc" opacity=".055"/><circle cx="36" cy="879" r=".65" fill="#f2eadc" opacity=".055"/><circle cx="310" cy="563" r=".65" fill="#f2eadc" opacity=".055"/><circle cx="1048" cy="65" r=".65" fill="#f2eadc" opacity=".055"/><circle cx="1546" cy="249" r=".65" fill="#f2eadc" opacity=".055"/><circle cx="1036" cy="421" r=".65" fill="#f2eadc" opacity=".055"/><circle cx="1118" cy="113" r=".65" fill="#f2eadc" opacity=".055"/><circle cx="1280" cy="533" r=".65" fill="#f2eadc" opacity=".055"/><circle cx="882" cy="493" r=".65" fill="#f2eadc" opacity=".055"/><circle cx="1396" cy="253" r=".65" fill="#f2eadc" opacity=".055"/><circle cx="1350" cy="125" r=".65" fill="#f2eadc" opacity=".055"/><circle cx="168" cy="289" r=".65" fill="#f2eadc" opacity=".055"/><circle cx="794" cy="565" r=".65" fill="#f2eadc" opacity=".055"/><circle cx="476" cy="87" r=".65" fill="#f2eadc" opacity=".055"/><circle cx="494" cy="475" r=".65" fill="#f2eadc" opacity=".055"/><circle cx="720" cy="213" r=".65" fill="#f2eadc" opacity=".055"/><circle cx="130" cy="273" r=".65" fill="#f2eadc" opacity=".055"/><circle cx="964" cy="405" r=".65" fill="#f2eadc" opacity=".055"/><circle cx="1302" cy="771" r=".65" fill="#f2eadc" opacity=".055"/><circle cx="1208" cy="597" r=".65" fill="#f2eadc" opacity=".055"/><circle cx="1002" cy="761" r=".65" fill="#f2eadc" opacity=".055"/><circle cx="1452" cy="195" r=".65" fill="#f2eadc" opacity=".055"/><circle cx="1086" cy="391" r=".65" fill="#f2eadc" opacity=".055"/><circle cx="352" cy="105" r=".65" fill="#f2eadc" opacity=".055"/><circle cx="1106" cy="603" r=".65" fill="#f2eadc" opacity=".055"/><circle cx="1364" cy="789" r=".65" fill="#f2eadc" opacity=".055"/><circle cx="38" cy="59" r=".65" fill="#f2eadc" opacity=".055"/><circle cx="584" cy="351" r=".65" fill="#f2eadc" opacity=".055"/><circle cx="1402" cy="827" r=".65" fill="#f2eadc" opacity=".055"/><circle cx="700" cy="901" r=".65" fill="#f2eadc" opacity=".055"/><circle cx="974" cy="863" r=".65" fill="#f2eadc" opacity=".055"/><circle cx="880" cy="227" r=".65" fill="#f2eadc" opacity=".055"/><circle cx="1186" cy="131" r=".65" fill="#f2eadc" opacity=".055"/><circle cx="932" cy="639" r=".65" fill="#f2eadc" opacity=".055"/><circle cx="1142" cy="573" r=".65" fill="#f2eadc" opacity=".055"/><circle cx="792" cy="627" r=".65" fill="#f2eadc" opacity=".055"/><circle cx="1034" cy="451" r=".65" fill="#f2eadc" opacity=".055"/><circle cx="908" cy="73" r=".65" fill="#f2eadc" opacity=".055"/><circle cx="222" cy="455" r=".65" fill="#f2eadc" opacity=".055"/><circle cx="256" cy="115" r=".65" fill="#f2eadc" opacity=".055"/><circle cx="946" cy="19" r=".65" fill="#f2eadc" opacity=".055"/><circle cx="308" cy="691" r=".65" fill="#f2eadc" opacity=".055"/><circle cx="774" cy="199" r=".65" fill="#f2eadc" opacity=".055"/><circle cx="872" cy="847" r=".65" fill="#f2eadc" opacity=".055"/><circle cx="1050" cy="357" r=".65" fill="#f2eadc" opacity=".055"/><circle cx="604" cy="473" r=".65" fill="#f2eadc" opacity=".055"/><circle cx="1326" cy="243" r=".65" fill="#f2eadc" opacity=".055"/><circle cx="784" cy="119" r=".65" fill="#f2eadc" opacity=".055"/><circle cx="1410" cy="49" r=".65" fill="#f2eadc" opacity=".055"/><circle cx="196" cy="71" r=".65" fill="#f2eadc" opacity=".055"/><circle cx="470" cy="459" r=".65" fill="#f2eadc" opacity=".055"/><circle cx="1208" cy="871" r=".65" fill="#f2eadc" opacity=".055"/><circle cx="1578" cy="857" r=".65" fill="#f2eadc" opacity=".055"/><circle cx="428" cy="389" r=".65" fill="#f2eadc" opacity=".055"/><circle cx="830" cy="859" r=".65" fill="#f2eadc" opacity=".055"/><circle cx="992" cy="395" r=".65" fill="#f2eadc" opacity=".055"/><circle cx="82" cy="729" r=".65" fill="#f2eadc" opacity=".055"/><circle cx="468" cy="207" r=".65" fill="#f2eadc" opacity=".055"/><circle cx="294" cy="285" r=".65" fill="#f2eadc" opacity=".055"/><circle cx="1096" cy="501" r=".65" fill="#f2eadc" opacity=".055"/><circle cx="1530" cy="345" r=".65" fill="#f2eadc" opacity=".055"/><circle cx="316" cy="561" r=".65" fill="#f2eadc" opacity=".055"/><circle cx="1166" cy="673" r=".65" fill="#f2eadc" opacity=".055"/><circle cx="112" cy="267" r=".65" fill="#f2eadc" opacity=".055"/><circle cx="866" cy="707" r=".65" fill="#f2eadc" opacity=".055"/><circle cx="932" cy="181" r=".65" fill="#f2eadc" opacity=".055"/><circle cx="1462" cy="713" r=".65" fill="#f2eadc" opacity=".055"/><circle cx="24" cy="663" r=".65" fill="#f2eadc" opacity=".055"/><circle cx="138" cy="617" r=".65" fill="#f2eadc" opacity=".055"/><circle cx="1292" cy="557" r=".65" fill="#f2eadc" opacity=".055"/><circle cx="990" cy="373" r=".65" fill="#f2eadc" opacity=".055"/><circle cx="768" cy="63" r=".65" fill="#f2eadc" opacity=".055"/><circle cx="1010" cy="413" r=".65" fill="#f2eadc" opacity=".055"/><circle cx="308" cy="755" r=".65" fill="#f2eadc" opacity=".055"/><circle cx="262" cy="221" r=".65" fill="#f2eadc" opacity=".055"/><circle cx="1064" cy="181" r=".65" fill="#f2eadc" opacity=".055"/><circle cx="794" cy="787" r=".65" fill="#f2eadc" opacity=".055"/><circle cx="732" cy="69" r=".65" fill="#f2eadc" opacity=".055"/><circle cx="302" cy="493" r=".65" fill="#f2eadc" opacity=".055"/><circle cx="144" cy="477" r=".65" fill="#f2eadc" opacity=".055"/><circle cx="1026" cy="155" r=".65" fill="#f2eadc" opacity=".055"/><circle cx="132" cy="121" r=".65" fill="#f2eadc" opacity=".055"/><circle cx="214" cy="77" r=".65" fill="#f2eadc" opacity=".055"/><circle cx="1144" cy="201" r=".65" fill="#f2eadc" opacity=".055"/><circle cx="1066" cy="161" r=".65" fill="#f2eadc" opacity=".055"/><circle cx="1260" cy="521" r=".65" fill="#f2eadc" opacity=".055"/><circle cx="1278" cy="21" r=".65" fill="#f2eadc" opacity=".055"/><circle cx="1184" cy="253" r=".65" fill="#f2eadc" opacity=".055"/><circle cx="530" cy="491" r=".65" fill="#f2eadc" opacity=".055"/><circle cx="1108" cy="515" r=".65" fill="#f2eadc" opacity=".055"/><circle cx="870" cy="331" r=".65" fill="#f2eadc" opacity=".055"/><circle cx="1032" cy="55" r=".65" fill="#f2eadc" opacity=".055"/><circle cx="1146" cy="343" r=".65" fill="#f2eadc" opacity=".055"/><circle cx="1020" cy="763" r=".65" fill="#f2eadc" opacity=".055"/><circle cx="14" cy="809" r=".65" fill="#f2eadc" opacity=".055"/><circle cx="752" cy="353" r=".65" fill="#f2eadc" opacity=".055"/><circle cx="866" cy="837" r=".65" fill="#f2eadc" opacity=".055"/><circle cx="612" cy="469" r=".65" fill="#f2eadc" opacity=".055"/><circle cx="1270" cy="73" r=".65" fill="#f2eadc" opacity=".055"/><circle cx="920" cy="263" r=".65" fill="#f2eadc" opacity=".055"/><circle cx="74" cy="289" r=".65" fill="#f2eadc" opacity=".055"/><circle cx="460" cy="101" r=".65" fill="#f2eadc" opacity=".055"/><circle cx="1246" cy="721" r=".65" fill="#f2eadc" opacity=".055"/><circle cx="832" cy="475" r=".65" fill="#f2eadc" opacity=".055"/><circle cx="946" cy="265" r=".65" fill="#f2eadc" opacity=".055"/><circle cx="564" cy="259" r=".65" fill="#f2eadc" opacity=".055"/><circle cx="1350" cy="591" r=".65" fill="#f2eadc" opacity=".055"/><circle cx="296" cy="217" r=".65" fill="#f2eadc" opacity=".055"/><circle cx="858" cy="119" r=".65" fill="#f2eadc" opacity=".055"/><circle cx="1116" cy="645" r=".65" fill="#f2eadc" opacity=".055"/><circle cx="878" cy="801" r=".65" fill="#f2eadc" opacity=".055"/><circle cx="400" cy="747" r=".65" fill="#f2eadc" opacity=".055"/><circle cx="1474" cy="491" r=".65" fill="#f2eadc" opacity=".055"/><circle cx="1412" cy="641" r=".65" fill="#f2eadc" opacity=".055"/><circle cx="598" cy="823" r=".65" fill="#f2eadc" opacity=".055"/><circle cx="1144" cy="529" r=".65" fill="#f2eadc" opacity=".055"/><circle cx="1130" cy="465" r=".65" fill="#f2eadc" opacity=".055"/><circle cx="1388" cy="813" r=".65" fill="#f2eadc" opacity=".055"/><circle cx="126" cy="583" r=".65" fill="#f2eadc" opacity=".055"/><circle cx="800" cy="321" r=".65" fill="#f2eadc" opacity=".055"/><circle cx="82" cy="189" r=".65" fill="#f2eadc" opacity=".055"/><circle cx="404" cy="905" r=".65" fill="#f2eadc" opacity=".055"/><circle cx="166" cy="885" r=".65" fill="#f2eadc" opacity=".055"/><circle cx="904" cy="61" r=".65" fill="#f2eadc" opacity=".055"/><circle cx="250" cy="283" r=".65" fill="#f2eadc" opacity=".055"/><circle cx="828" cy="835" r=".65" fill="#f2eadc" opacity=".055"/><circle cx="1038" cy="737" r=".65" fill="#f2eadc" opacity=".055"/><circle cx="48" cy="887" r=".65" fill="#f2eadc" opacity=".055"/><circle cx="1250" cy="197" r=".65" fill="#f2eadc" opacity=".055"/><circle cx="1188" cy="711" r=".65" fill="#f2eadc" opacity=".055"/><circle cx="1206" cy="793" r=".65" fill="#f2eadc" opacity=".055"/><circle cx="664" cy="491" r=".65" fill="#f2eadc" opacity=".055"/><circle cx="1162" cy="381" r=".65" fill="#f2eadc" opacity=".055"/><circle cx="716" cy="665" r=".65" fill="#f2eadc" opacity=".055"/><circle cx="1438" cy="597" r=".65" fill="#f2eadc" opacity=".055"/><circle cx="576" cy="603" r=".65" fill="#f2eadc" opacity=".055"/><circle cx="754" cy="163" r=".65" fill="#f2eadc" opacity=".055"/><circle cx="1268" cy="503" r=".65" fill="#f2eadc" opacity=".055"/><circle cx="710" cy="351" r=".65" fill="#f2eadc" opacity=".055"/><circle cx="40" cy="215" r=".65" fill="#f2eadc" opacity=".055"/><circle cx="1306" cy="321" r=".65" fill="#f2eadc" opacity=".055"/><circle cx="1436" cy="907" r=".65" fill="#f2eadc" opacity=".055"/><circle cx="238" cy="267" r=".65" fill="#f2eadc" opacity=".055"/><circle cx="1552" cy="851" r=".65" fill="#f2eadc" opacity=".055"/><circle cx="386" cy="367" r=".65" fill="#f2eadc" opacity=".055"/><circle cx="1412" cy="615" r=".65" fill="#f2eadc" opacity=".055"/><circle cx="726" cy="319" r=".65" fill="#f2eadc" opacity=".055"/><circle cx="760" cy="221" r=".65" fill="#f2eadc" opacity=".055"/><circle cx="1258" cy="497" r=".65" fill="#f2eadc" opacity=".055"/><circle cx="876" cy="129" r=".65" fill="#f2eadc" opacity=".055"/><circle cx="382" cy="765" r=".65" fill="#f2eadc" opacity=".055"/><circle cx="736" cy="793" r=".65" fill="#f2eadc" opacity=".055"/><circle cx="594" cy="841" r=".65" fill="#f2eadc" opacity=".055"/><circle cx="916" cy="889" r=".65" fill="#f2eadc" opacity=".055"/><circle cx="1510" cy="765" r=".65" fill="#f2eadc" opacity=".055"/><circle cx="1544" cy="465" r=".65" fill="#f2eadc" opacity=".055"/><circle cx="762" cy="345" r=".65" fill="#f2eadc" opacity=".055"/><circle cx="1084" cy="823" r=".65" fill="#f2eadc" opacity=".055"/><circle cx="1486" cy="385" r=".65" fill="#f2eadc" opacity=".055"/><circle cx="1072" cy="3" r=".65" fill="#f2eadc" opacity=".055"/><circle cx="802" cy="859" r=".65" fill="#f2eadc" opacity=".055"/><circle cx="1188" cy="179" r=".65" fill="#f2eadc" opacity=".055"/><circle cx="630" cy="669" r=".65" fill="#f2eadc" opacity=".055"/><circle cx="472" cy="655" r=".65" fill="#f2eadc" opacity=".055"/><circle cx="1162" cy="705" r=".65" fill="#f2eadc" opacity=".055"/><circle cx="780" cy="349" r=".65" fill="#f2eadc" opacity=".055"/><circle cx="542" cy="329" r=".65" fill="#f2eadc" opacity=".055"/><circle cx="960" cy="161" r=".65" fill="#f2eadc" opacity=".055"/><circle cx="946" cy="247" r=".65" fill="#f2eadc" opacity=".055"/><circle cx="1332" cy="519" r=".65" fill="#f2eadc" opacity=".055"/><circle cx="326" cy="683" r=".65" fill="#f2eadc" opacity=".055"/><circle cx="1192" cy="409" r=".65" fill="#f2eadc" opacity=".055"/><circle cx="922" cy="439" r=".65" fill="#f2eadc" opacity=".055"/><circle cx="796" cy="421" r=".65" fill="#f2eadc" opacity=".055"/><circle cx="686" cy="159" r=".65" fill="#f2eadc" opacity=".055"/><circle cx="848" cy="121" r=".65" fill="#f2eadc" opacity=".055"/><circle cx="514" cy="721" r=".65" fill="#f2eadc" opacity=".055"/><circle cx="1028" cy="257" r=".65" fill="#f2eadc" opacity=".055"/><circle cx="22" cy="289" r=".65" fill="#f2eadc" opacity=".055"/><circle cx="376" cy="181" r=".65" fill="#f2eadc" opacity=".055"/><circle cx="874" cy="101" r=".65" fill="#f2eadc" opacity=".055"/><circle cx="1004" cy="639" r=".65" fill="#f2eadc" opacity=".055"/><circle cx="1086" cy="17" r=".65" fill="#f2eadc" opacity=".055"/><circle cx="1312" cy="249" r=".65" fill="#f2eadc" opacity=".055"/><circle cx="658" cy="543" r=".65" fill="#f2eadc" opacity=".055"/><circle cx="916" cy="185" r=".65" fill="#f2eadc" opacity=".055"/><circle cx="1254" cy="531" r=".65" fill="#f2eadc" opacity=".055"/><circle cx="712" cy="623" r=".65" fill="#f2eadc" opacity=".055"/><circle cx="634" cy="261" r=".65" fill="#f2eadc" opacity=".055"/><circle cx="60" cy="837" r=".65" fill="#f2eadc" opacity=".055"/><circle cx="718" cy="655" r=".65" fill="#f2eadc" opacity=".055"/><circle cx="432" cy="449" r=".65" fill="#f2eadc" opacity=".055"/><circle cx="1442" cy="409" r=".65" fill="#f2eadc" opacity=".055"/><circle cx="676" cy="683" r=".65" fill="#f2eadc" opacity=".055"/><circle cx="630" cy="405" r=".65" fill="#f2eadc" opacity=".055"/><circle cx="792" cy="781" r=".65" fill="#f2eadc" opacity=".055"/><circle cx="1354" cy="85" r=".65" fill="#f2eadc" opacity=".055"/><circle cx="204" cy="843" r=".65" fill="#f2eadc" opacity=".055"/><circle cx="862" cy="707" r=".65" fill="#f2eadc" opacity=".055"/><circle cx="64" cy="861" r=".65" fill="#f2eadc" opacity=".055"/><circle cx="178" cy="209" r=".65" fill="#f2eadc" opacity=".055"/><circle cx="1396" cy="569" r=".65" fill="#f2eadc" opacity=".055"/><circle cx="1222" cy="501" r=".65" fill="#f2eadc" opacity=".055"/><circle cx="1576" cy="841" r=".65" fill="#f2eadc" opacity=".055"/><circle cx="218" cy="95" r=".65" fill="#f2eadc" opacity=".055"/><circle cx="732" cy="751" r=".65" fill="#f2eadc" opacity=".055"/><circle cx="1454" cy="757" r=".65" fill="#f2eadc" opacity=".055"/><circle cx="1552" cy="171" r=".65" fill="#f2eadc" opacity=".055"/><circle cx="130" cy="735" r=".65" fill="#f2eadc" opacity=".055"/><circle cx="1284" cy="499" r=".65" fill="#f2eadc" opacity=".055"/><circle cx="726" cy="701" r=".65" fill="#f2eadc" opacity=".055"/><circle cx="1592" cy="723" r=".65" fill="#f2eadc" opacity=".055"/><circle cx="618" cy="351" r=".65" fill="#f2eadc" opacity=".055"/><circle cx="492" cy="681" r=".65" fill="#f2eadc" opacity=".055"/><circle cx="702" cy="725" r=".65" fill="#f2eadc" opacity=".055"/><circle cx="1376" cy="177" r=".65" fill="#f2eadc" opacity=".055"/><circle cx="274" cy="697" r=".65" fill="#f2eadc" opacity=".055"/><circle cx="212" cy="907" r=".65" fill="#f2eadc" opacity=".055"/><circle cx="1382" cy="437" r=".65" fill="#f2eadc" opacity=".055"/><circle cx="200" cy="609" r=".65" fill="#f2eadc" opacity=".055"/><circle cx="442" cy="595" r=".65" fill="#f2eadc" opacity=".055"/><circle cx="444" cy="141" r=".65" fill="#f2eadc" opacity=".055"/><circle cx="334" cy="39" r=".65" fill="#f2eadc" opacity=".055"/><circle cx="48" cy="743" r=".65" fill="#f2eadc" opacity=".055"/><circle cx="610" cy="791" r=".65" fill="#f2eadc" opacity=".055"/><circle cx="932" cy="713" r=".65" fill="#f2eadc" opacity=".055"/><circle cx="1206" cy="655" r=".65" fill="#f2eadc" opacity=".055"/><circle cx="88" cy="305" r=".65" fill="#f2eadc" opacity=".055"/><circle cx="138" cy="25" r=".65" fill="#f2eadc" opacity=".055"/><circle cx="460" cy="261" r=".65" fill="#f2eadc" opacity=".055"/><circle cx="222" cy="111" r=".65" fill="#f2eadc" opacity=".055"/><circle cx="0" cy="469" r=".65" fill="#f2eadc" opacity=".055"/><circle cx="114" cy="573" r=".65" fill="#f2eadc" opacity=".055"/><circle cx="628" cy="69" r=".65" fill="#f2eadc" opacity=".055"/><circle cx="1030" cy="859" r=".65" fill="#f2eadc" opacity=".055"/><circle cx="744" cy="707" r=".65" fill="#f2eadc" opacity=".055"/><circle cx="1434" cy="681" r=".65" fill="#f2eadc" opacity=".055"/><circle cx="796" cy="681" r=".65" fill="#f2eadc" opacity=".055"/><circle cx="1198" cy="585" r=".65" fill="#f2eadc" opacity=".055"/><circle cx="848" cy="717" r=".65" fill="#f2eadc" opacity=".055"/><circle cx="1538" cy="821" r=".65" fill="#f2eadc" opacity=".055"/><circle cx="1220" cy="773" r=".65" fill="#f2eadc" opacity=".055"/><circle cx="214" cy="23" r=".65" fill="#f2eadc" opacity=".055"/><circle cx="440" cy="803" r=".65" fill="#f2eadc" opacity=".055"/><circle cx="554" cy="565" r=".65" fill="#f2eadc" opacity=".055"/><circle cx="172" cy="221" r=".65" fill="#f2eadc" opacity=".055"/><circle cx="318" cy="647" r=".65" fill="#f2eadc" opacity=".055"/><circle cx="288" cy="707" r=".65" fill="#f2eadc" opacity=".055"/><circle cx="978" cy="835" r=".65" fill="#f2eadc" opacity=".055"/><circle cx="1428" cy="427" r=".65" fill="#f2eadc" opacity=".055"/><circle cx="1190" cy="517" r=".65" fill="#f2eadc" opacity=".055"/><circle cx="1416" cy="561" r=".65" fill="#f2eadc" opacity=".055"/><circle cx="1082" cy="297" r=".65" fill="#f2eadc" opacity=".055"/><circle cx="956" cy="537" r=".65" fill="#f2eadc" opacity=".055"/><circle cx="1358" cy="477" r=".65" fill="#f2eadc" opacity=".055"/><circle cx="176" cy="775" r=".65" fill="#f2eadc" opacity=".055"/><circle cx="1570" cy="771" r=".65" fill="#f2eadc" opacity=".055"/><circle cx="868" cy="131" r=".65" fill="#f2eadc" opacity=".055"/><circle cx="1206" cy="829" r=".65" fill="#f2eadc" opacity=".055"/><circle cx="152" cy="689" r=".65" fill="#f2eadc" opacity=".055"/><circle cx="1354" cy="529" r=".65" fill="#f2eadc" opacity=".055"/><circle cx="652" cy="677" r=".65" fill="#f2eadc" opacity=".055"/><circle cx="670" cy="625" r=".65" fill="#f2eadc" opacity=".055"/><circle cx="896" cy="313" r=".65" fill="#f2eadc" opacity=".055"/><circle cx="50" cy="505" r=".65" fill="#f2eadc" opacity=".055"/><circle cx="116" cy="461" r=".65" fill="#f2eadc" opacity=".055"/><circle cx="1222" cy="401" r=".65" fill="#f2eadc" opacity=".055"/><circle cx="1064" cy="177" r=".65" fill="#f2eadc" opacity=".055"/><circle cx="26" cy="781" r=".65" fill="#f2eadc" opacity=".055"/><circle cx="668" cy="481" r=".65" fill="#f2eadc" opacity=".055"/><circle cx="1006" cy="449" r=".65" fill="#f2eadc" opacity=".055"/><circle cx="1552" cy="515" r=".65" fill="#f2eadc" opacity=".055"/><circle cx="770" cy="687" r=".65" fill="#f2eadc" opacity=".055"/><circle cx="1412" cy="63" r=".65" fill="#f2eadc" opacity=".055"/><circle cx="982" cy="825" r=".65" fill="#f2eadc" opacity=".055"/><circle cx="1272" cy="863" r=".65" fill="#f2eadc" opacity=".055"/><circle cx="682" cy="523" r=".65" fill="#f2eadc" opacity=".055"/><circle cx="108" cy="455" r=".65" fill="#f2eadc" opacity=".055"/><circle cx="1342" cy="733" r=".65" fill="#f2eadc" opacity=".055"/><circle cx="1056" cy="867" r=".65" fill="#f2eadc" opacity=".055"/><circle cx="1426" cy="667" r=".65" fill="#f2eadc" opacity=".055"/><circle cx="20" cy="475" r=".65" fill="#f2eadc" opacity=".055"/><circle cx="614" cy="499" r=".65" fill="#f2eadc" opacity=".055"/><circle cx="392" cy="681" r=".65" fill="#f2eadc" opacity=".055"/><circle cx="1274" cy="457" r=".65" fill="#f2eadc" opacity=".055"/><circle cx="444" cy="507" r=".65" fill="#f2eadc" opacity=".055"/><circle cx="1422" cy="731" r=".65" fill="#f2eadc" opacity=".055"/><circle cx="1392" cy="755" r=".65" fill="#f2eadc" opacity=".055"/><circle cx="610" cy="857" r=".65" fill="#f2eadc" opacity=".055"/><circle cx="1316" cy="29" r=".65" fill="#f2eadc" opacity=".055"/><circle cx="1078" cy="145" r=".65" fill="#f2eadc" opacity=".055"/><circle cx="600" cy="587" r=".65" fill="#f2eadc" opacity=".055"/><circle cx="650" cy="357" r=".65" fill="#f2eadc" opacity=".055"/><circle cx="204" cy="333" r=".65" fill="#f2eadc" opacity=".055"/><circle cx="1182" cy="245" r=".65" fill="#f2eadc" opacity=".055"/><circle cx="1408" cy="107" r=".65" fill="#f2eadc" opacity=".055"/><circle cx="1010" cy="799" r=".65" fill="#f2eadc" opacity=".055"/><circle cx="180" cy="379" r=".65" fill="#f2eadc" opacity=".055"/><circle cx="390" cy="707" r=".65" fill="#f2eadc" opacity=".055"/><circle cx="936" cy="139" r=".65" fill="#f2eadc" opacity=".055"/><circle cx="986" cy="351" r=".65" fill="#f2eadc" opacity=".055"/><circle cx="860" cy="485" r=".65" fill="#f2eadc" opacity=".055"/><circle cx="174" cy="821" r=".65" fill="#f2eadc" opacity=".055"/><circle cx="1104" cy="63" r=".65" fill="#f2eadc" opacity=".055"/><circle cx="770" cy="617" r=".65" fill="#f2eadc" opacity=".055"/><circle cx="1156" cy="403" r=".65" fill="#f2eadc" opacity=".055"/><circle cx="854" cy="139" r=".65" fill="#f2eadc" opacity=".055"/><circle cx="1272" cy="897" r=".65" fill="#f2eadc" opacity=".055"/><circle cx="618" cy="581" r=".65" fill="#f2eadc" opacity=".055"/><circle cx="1388" cy="567" r=".65" fill="#f2eadc" opacity=".055"/><circle cx="318" cy="177" r=".65" fill="#f2eadc" opacity=".055"/><circle cx="288" cy="5" r=".65" fill="#f2eadc" opacity=".055"/><circle cx="1106" cy="109" r=".65" fill="#f2eadc" opacity=".055"/><circle cx="660" cy="883" r=".65" fill="#f2eadc" opacity=".055"/><circle cx="102" cy="175" r=".65" fill="#f2eadc" opacity=".055"/><circle cx="392" cy="723" r=".65" fill="#f2eadc" opacity=".055"/><circle cx="1274" cy="153" r=".65" fill="#f2eadc" opacity=".055"/><circle cx="1468" cy="161" r=".65" fill="#f2eadc" opacity=".055"/><circle cx="206" cy="651" r=".65" fill="#f2eadc" opacity=".055"/><circle cx="1392" cy="701" r=".65" fill="#f2eadc" opacity=".055"/><circle cx="1442" cy="199" r=".65" fill="#f2eadc" opacity=".055"/><circle cx="36" cy="653" r=".65" fill="#f2eadc" opacity=".055"/><circle cx="1014" cy="359" r=".65" fill="#f2eadc" opacity=".055"/><circle cx="1176" cy="679" r=".65" fill="#f2eadc" opacity=".055"/><circle cx="906" cy="551" r=".65" fill="#f2eadc" opacity=".055"/><circle cx="1164" cy="521" r=".65" fill="#f2eadc" opacity=".055"/><circle cx="862" cy="273" r=".65" fill="#f2eadc" opacity=".055"/><circle cx="1024" cy="397" r=".65" fill="#f2eadc" opacity=".055"/><circle cx="1138" cy="749" r=".65" fill="#f2eadc" opacity=".055"/><circle cx="52" cy="483" r=".65" fill="#f2eadc" opacity=".055"/><circle cx="646" cy="293" r=".65" fill="#f2eadc" opacity=".055"/><circle cx="1384" cy="635" r=".65" fill="#f2eadc" opacity=".055"/><circle cx="218" cy="833" r=".65" fill="#f2eadc" opacity=".055"/><circle cx="796" cy="579" r=".65" fill="#f2eadc" opacity=".055"/><circle cx="46" cy="303" r=".65" fill="#f2eadc" opacity=".055"/><circle cx="464" cy="65" r=".65" fill="#f2eadc" opacity=".055"/><circle cx="322" cy="703" r=".65" fill="#f2eadc" opacity=".055"/><circle cx="1476" cy="251" r=".65" fill="#f2eadc" opacity=".055"/><circle cx="278" cy="407" r=".65" fill="#f2eadc" opacity=".055"/><circle cx="440" cy="707" r=".65" fill="#f2eadc" opacity=".055"/><circle cx="298" cy="903" r=".65" fill="#f2eadc" opacity=".055"/><circle cx="1324" cy="459" r=".65" fill="#f2eadc" opacity=".055"/><circle cx="1406" cy="57" r=".65" fill="#f2eadc" opacity=".055"/><circle cx="1440" cy="661" r=".65" fill="#f2eadc" opacity=".055"/><circle cx="1426" cy="307" r=".65" fill="#f2eadc" opacity=".055"/><circle cx="660" cy="11" r=".65" fill="#f2eadc" opacity=".055"/><circle cx="38" cy="425" r=".65" fill="#f2eadc" opacity=".055"/><circle cx="200" cy="363" r=".65" fill="#f2eadc" opacity=".055"/><circle cx="954" cy="603" r=".65" fill="#f2eadc" opacity=".055"/><circle cx="1532" cy="327" r=".65" fill="#f2eadc" opacity=".055"/><circle cx="1102" cy="37" r=".65" fill="#f2eadc" opacity=".055"/><circle cx="1008" cy="41" r=".65" fill="#f2eadc" opacity=".055"/><circle cx="610" cy="741" r=".65" fill="#f2eadc" opacity=".055"/><circle cx="1316" cy="237" r=".65" fill="#f2eadc" opacity=".055"/><circle cx="118" cy="561" r=".65" fill="#f2eadc" opacity=".055"/><circle cx="344" cy="657" r=".65" fill="#f2eadc" opacity=".055"/><circle cx="1034" cy="539" r=".65" fill="#f2eadc" opacity=".055"/><circle cx="908" cy="9" r=".65" fill="#f2eadc" opacity=".055"/><circle cx="30" cy="653" r=".65" fill="#f2eadc" opacity=".055"/><circle cx="448" cy="115" r=".65" fill="#f2eadc" opacity=".055"/><circle cx="306" cy="367" r=".65" fill="#f2eadc" opacity=".055"/><circle cx="1204" cy="445" r=".65" fill="#f2eadc" opacity=".055"/><circle cx="134" cy="867" r=".65" fill="#f2eadc" opacity=".055"/><circle cx="1256" cy="207" r=".65" fill="#f2eadc" opacity=".055"/><circle cx="666" cy="889" r=".65" fill="#f2eadc" opacity=".055"/><circle cx="1436" cy="713" r=".65" fill="#f2eadc" opacity=".055"/><circle cx="1070" cy="405" r=".65" fill="#f2eadc" opacity=".055"/><circle cx="1424" cy="891" r=".65" fill="#f2eadc" opacity=".055"/><circle cx="1026" cy="191" r=".65" fill="#f2eadc" opacity=".055"/><circle cx="516" cy="347" r=".65" fill="#f2eadc" opacity=".055"/><circle cx="726" cy="751" r=".65" fill="#f2eadc" opacity=".055"/><circle cx="504" cy="17" r=".65" fill="#f2eadc" opacity=".055"/><circle cx="298" cy="551" r=".65" fill="#f2eadc" opacity=".055"/><circle cx="1452" cy="353" r=".65" fill="#f2eadc" opacity=".055"/><circle cx="894" cy="349" r=".65" fill="#f2eadc" opacity=".055"/><circle cx="672" cy="747" r=".65" fill="#f2eadc" opacity=".055"/><circle cx="914" cy="139" r=".65" fill="#f2eadc" opacity=".055"/><circle cx="340" cy="549" r=".65" fill="#f2eadc" opacity=".055"/><circle cx="422" cy="657" r=".65" fill="#f2eadc" opacity=".055"/><circle cx="1224" cy="137" r=".65" fill="#f2eadc" opacity=".055"/><circle cx="1210" cy="757" r=".65" fill="#f2eadc" opacity=".055"/><circle cx="444" cy="589" r=".65" fill="#f2eadc" opacity=".055"/><circle cx="526" cy="829" r=".65" fill="#f2eadc" opacity=".055"/><circle cx="1392" cy="741" r=".65" fill="#f2eadc" opacity=".055"/><circle cx="1378" cy="595" r=".65" fill="#f2eadc" opacity=".055"/><circle cx="356" cy="719" r=".65" fill="#f2eadc" opacity=".055"/><circle cx="1334" cy="417" r=".65" fill="#f2eadc" opacity=".055"/><circle cx="1496" cy="163" r=".65" fill="#f2eadc" opacity=".055"/><circle cx="1354" cy="439" r=".65" fill="#f2eadc" opacity=".055"/><circle cx="1036" cy="217" r=".65" fill="#f2eadc" opacity=".055"/><text x="70" y="58" fill="#df6550" font-size="21" class="mono" text-anchor="start">03 / IMPLEMENTATION PATTERNS</text><text x="70" y="145" fill="#f2eadc" font-size="72" class="display" text-anchor="start">ONE BROKEN INVARIANT.</text><line x1="70" y1="172" x2="1530" y2="172" stroke="#6b655e" stroke-width="2" /><text x="70" y="224" fill="#df6550" font-size="67" class="display" text-anchor="start">FOUR IMPLEMENTATION SHAPES.</text><rect x="70" y="305" width="715" height="220" rx="4" fill="#1b1814" stroke="#51493c" stroke-width="3" /><text x="96" y="393" fill="#e4bf52" font-size="58" class="display" text-anchor="start">A→?</text><text x="238" y="363" fill="#f2eadc" font-size="24" class="mono" text-anchor="start">AGENT-TREE AMBIGUITY</text><line x1="238" y1="383" x2="750" y2="383" stroke="#6b655e" stroke-width="2" /><text x="238" y="429" fill="#b5ab9f" font-size="19" class="mono" text-anchor="start">Duplicate local names resolve to the first</text><text x="238" y="459" fill="#b5ab9f" font-size="19" class="mono" text-anchor="start">matching sub-agent.</text><rect x="815" y="305" width="715" height="220" rx="4" fill="#1b1814" stroke="#51493c" stroke-width="3" /><text x="841" y="393" fill="#e4bf52" font-size="58" class="display" text-anchor="start">ƒ()</text><text x="983" y="363" fill="#f2eadc" font-size="24" class="mono" text-anchor="start">TOOL IDENTITY COLLAPSE</text><line x1="983" y1="383" x2="1495" y2="383" stroke="#6b655e" stroke-width="2" /><text x="983" y="429" fill="#b5ab9f" font-size="19" class="mono" text-anchor="start">Card names become tool or handoff selectors; one</text><text x="983" y="459" fill="#b5ab9f" font-size="19" class="mono" text-anchor="start">duplicate wins.</text><rect x="70" y="584" width="715" height="220" rx="4" fill="#1b1814" stroke="#51493c" stroke-width="3" /><text x="96" y="672" fill="#e4bf52" font-size="58" class="display" text-anchor="start">{ }</text><text x="238" y="642" fill="#f2eadc" font-size="24" class="mono" text-anchor="start">CLIENT-MAP REPLACEMENT</text><line x1="238" y1="662" x2="750" y2="662" stroke="#6b655e" stroke-width="2" /><text x="238" y="708" fill="#b5ab9f" font-size="19" class="mono" text-anchor="start">A later card overwrites a connection object</text><text x="238" y="738" fill="#b5ab9f" font-size="19" class="mono" text-anchor="start">stored under the same name.</text><rect x="815" y="584" width="715" height="220" rx="4" fill="#1b1814" stroke="#51493c" stroke-width="3" /><text x="841" y="672" fill="#e4bf52" font-size="58" class="display" text-anchor="start">◉</text><text x="983" y="642" fill="#f2eadc" font-size="24" class="mono" text-anchor="start">BROKER IDENTITY COLLAPSE</text><line x1="983" y1="662" x2="1495" y2="662" stroke="#6b655e" stroke-width="2" /><text x="983" y="708" fill="#b5ab9f" font-size="19" class="mono" text-anchor="start">The same name becomes a topic, queue, or consumer</text><text x="983" y="738" fill="#b5ab9f" font-size="19" class="mono" text-anchor="start">identity.</text><text x="70" y="858" fill="#b5ab9f" font-size="20" class="mono" text-anchor="start">THE DATA STRUCTURE IS INCIDENTAL. THE FAILING BINDING IS FROM ADMITTED IDENTITY TO FINAL TARGET.</text></svg>